<?xml version="1.0" encoding="utf-8"?>
<!-- Generator: Adobe Illustrator 16.0.0, SVG Export Plug-In . SVG Version: 6.00 Build 0)  -->
<!DOCTYPE svg PUBLIC "-//W3C//DTD SVG 1.1//EN" "http://www.w3.org/Graphics/SVG/1.1/DTD/svg11.dtd">
<svg version="1.1" id="id-logo" xmlns="http://www.w3.org/2000/svg" xmlns:xlink="http://www.w3.org/1999/xlink" x="0px" y="0px"
	 width="210px" height="32px" viewBox="7.25 0 210 32" enable-background="new 7.25 0 210 32" xml:space="preserve">
<g>
	<rect x="21.392" fill="#475966" width="8.008" height="8.008"/>
	<rect x="31" fill="#00E6C8" width="12.817" height="8.008"/>
	<polygon fill="#475966" points="29.4,32.082 21.392,24.074 21.392,9.662 29.4,9.662 	"/>
	<polygon fill="#4797FF" points="53.422,24.074 45.414,32.082 31,32.082 31,24.074 	"/>
	
		<linearGradient id="SVGID_1_" gradientUnits="userSpaceOnUse" x1="-127.6553" y1="-368.9805" x2="-127.6553" y2="-391.3677" gradientTransform="matrix(1 0 0 -1 177.1201 -368.9805)">
		<stop  offset="0" style="stop-color:#00E6C8"/>
		<stop  offset="0.2201" style="stop-color:#04E2CB"/>
		<stop  offset="0.4481" style="stop-color:#0FD5D4"/>
		<stop  offset="0.6798" style="stop-color:#22C1E2"/>
		<stop  offset="0.9126" style="stop-color:#3BA4F6"/>
		<stop  offset="1" style="stop-color:#4797FF"/>
	</linearGradient>
	<polygon fill="url(#SVGID_1_)" points="45.507,0 53.422,7.915 53.422,22.387 45.507,22.387 	"/>
	<g>
		<path fill="#475966" d="M60.198,12.056h-2.646v-1.318h6.873v1.318H61.78v8.833h2.646v1.336h-6.873v-1.336h2.646V12.056z"/>
		<path fill="#475966" d="M67.344,13.4h1.362l0.062,1.424c0.258-0.305,0.507-0.559,0.747-0.76c0.24-0.203,0.476-0.365,0.708-0.488
			s0.467-0.209,0.708-0.26c0.24-0.049,0.489-0.074,0.747-0.074c0.908,0,1.595,0.268,2.061,0.805
			c0.466,0.535,0.699,1.343,0.699,2.421v5.757h-1.529v-5.634c0-0.691-0.129-1.202-0.387-1.534c-0.258-0.33-0.642-0.496-1.151-0.496
			c-0.188,0-0.371,0.028-0.549,0.084s-0.365,0.152-0.558,0.289c-0.193,0.139-0.403,0.324-0.628,0.559s-0.479,0.527-0.76,0.879v5.854
			h-1.529V13.4z"/>
		<path fill="#475966" d="M76.792,17.997c0-0.75,0.103-1.416,0.308-1.999s0.497-1.075,0.875-1.477s0.832-0.706,1.362-0.914
			s1.121-0.313,1.771-0.313c0.281,0,0.558,0.018,0.831,0.053s0.541,0.091,0.804,0.167V9.806h1.538v12.419h-1.371l-0.053-1.67
			c-0.428,0.621-0.891,1.081-1.389,1.38s-1.037,0.448-1.617,0.448c-0.504,0-0.948-0.105-1.332-0.316s-0.703-0.508-0.958-0.893
			c-0.255-0.383-0.447-0.845-0.576-1.384S76.792,18.653,76.792,17.997z M78.356,17.9c0,1.066,0.157,1.862,0.47,2.387
			s0.757,0.786,1.332,0.786c0.387,0,0.795-0.173,1.226-0.519s0.883-0.858,1.358-1.538v-4.096c-0.252-0.117-0.53-0.206-0.835-0.269
			c-0.305-0.061-0.606-0.092-0.905-0.092c-0.832,0-1.481,0.27-1.947,0.809S78.356,16.752,78.356,17.9z"/>
		<path fill="#475966" d="M90.143,14.666h-2.61V13.4h4.157v7.55h2.628v1.274h-7.075V20.95h2.9V14.666z M90.679,9.7
			c0.17,0,0.328,0.03,0.475,0.093c0.146,0.061,0.274,0.147,0.382,0.259s0.193,0.239,0.255,0.382
			c0.062,0.145,0.092,0.301,0.092,0.471c0,0.164-0.031,0.319-0.092,0.466s-0.146,0.275-0.255,0.387s-0.236,0.198-0.382,0.259
			c-0.146,0.063-0.305,0.093-0.475,0.093s-0.328-0.03-0.475-0.093c-0.146-0.061-0.274-0.147-0.382-0.259s-0.193-0.24-0.255-0.387
			s-0.092-0.302-0.092-0.466c0-0.17,0.031-0.326,0.092-0.471c0.062-0.143,0.146-0.271,0.255-0.382s0.236-0.198,0.382-0.259
			C90.351,9.73,90.509,9.7,90.679,9.7z"/>
		<path fill="#475966" d="M103.889,21.899c-0.398,0.152-0.807,0.266-1.226,0.339c-0.419,0.072-0.851,0.109-1.296,0.109
			c-1.395,0-2.468-0.378-3.221-1.134s-1.129-1.86-1.129-3.313c0-0.697,0.108-1.33,0.325-1.898s0.521-1.055,0.914-1.459
			s0.861-0.717,1.406-0.936c0.545-0.221,1.146-0.33,1.802-0.33c0.457,0,0.885,0.032,1.283,0.097s0.779,0.17,1.143,0.316v1.459
			c-0.381-0.199-0.769-0.344-1.165-0.435s-0.804-0.137-1.226-0.137c-0.393,0-0.763,0.074-1.112,0.225
			c-0.349,0.148-0.655,0.364-0.918,0.646s-0.472,0.624-0.624,1.028s-0.229,0.861-0.229,1.371c0,1.066,0.259,1.865,0.778,2.395
			c0.519,0.531,1.238,0.796,2.158,0.796c0.416,0,0.819-0.047,1.208-0.141s0.766-0.234,1.129-0.422V21.899z"/>
		<path fill="#475966" d="M112.599,22.225l-0.035-1.187c-0.48,0.475-0.968,0.817-1.463,1.028s-1.015,0.316-1.56,0.316
			c-0.504,0-0.935-0.064-1.292-0.193s-0.652-0.306-0.883-0.531s-0.401-0.491-0.51-0.796s-0.163-0.636-0.163-0.993
			c0-0.885,0.33-1.578,0.989-2.078c0.659-0.502,1.633-0.752,2.922-0.752h1.828v-0.773c0-0.521-0.167-0.938-0.501-1.252
			s-0.844-0.471-1.529-0.471c-0.498,0-0.989,0.056-1.472,0.167s-0.983,0.27-1.499,0.475v-1.38c0.193-0.07,0.409-0.139,0.646-0.207
			c0.237-0.066,0.488-0.127,0.751-0.18s0.539-0.095,0.826-0.127s0.577-0.049,0.87-0.049c0.533,0,1.014,0.059,1.441,0.176
			s0.79,0.296,1.085,0.536s0.523,0.542,0.681,0.905s0.237,0.791,0.237,1.283v6.082H112.599z M112.432,18.208h-1.942
			c-0.381,0-0.709,0.038-0.984,0.114s-0.501,0.185-0.677,0.325s-0.306,0.31-0.391,0.505c-0.085,0.197-0.127,0.418-0.127,0.664
			c0,0.17,0.026,0.333,0.079,0.488s0.138,0.293,0.255,0.412c0.117,0.121,0.27,0.216,0.457,0.286s0.416,0.105,0.686,0.105
			c0.352,0,0.754-0.106,1.208-0.321c0.454-0.213,0.933-0.552,1.437-1.015V18.208z"/>
		<path fill="#475966" d="M116.378,17.997c0-0.75,0.103-1.416,0.308-1.999s0.497-1.075,0.875-1.477s0.832-0.706,1.363-0.914
			c0.529-0.208,1.12-0.313,1.771-0.313c0.281,0,0.558,0.018,0.831,0.053c0.271,0.035,0.54,0.091,0.804,0.167V9.806h1.538v12.419
			h-1.371l-0.053-1.67c-0.428,0.621-0.891,1.081-1.389,1.38s-1.037,0.448-1.617,0.448c-0.504,0-0.947-0.105-1.332-0.316
			c-0.384-0.211-0.703-0.508-0.958-0.893c-0.255-0.383-0.447-0.845-0.576-1.384S116.378,18.653,116.378,17.997z M117.942,17.9
			c0,1.066,0.157,1.862,0.471,2.387c0.313,0.524,0.757,0.786,1.331,0.786c0.387,0,0.796-0.173,1.226-0.519
			c0.432-0.346,0.884-0.858,1.358-1.538v-4.096c-0.252-0.117-0.53-0.206-0.835-0.269c-0.305-0.061-0.606-0.092-0.905-0.092
			c-0.832,0-1.481,0.27-1.946,0.809C118.175,15.908,117.942,16.752,117.942,17.9z"/>
		<path fill="#475966" d="M134.404,17.742c0,0.686-0.097,1.314-0.29,1.885c-0.193,0.572-0.472,1.062-0.835,1.469
			s-0.806,0.724-1.327,0.949c-0.521,0.225-1.113,0.338-1.775,0.338c-0.633,0-1.2-0.099-1.7-0.295
			c-0.502-0.195-0.927-0.484-1.275-0.865s-0.615-0.853-0.799-1.415c-0.186-0.563-0.277-1.21-0.277-1.942
			c0-0.686,0.097-1.311,0.29-1.877c0.193-0.564,0.472-1.051,0.835-1.459c0.363-0.406,0.806-0.723,1.327-0.949
			c0.521-0.225,1.113-0.338,1.775-0.338c0.633,0,1.2,0.099,1.7,0.295c0.502,0.196,0.926,0.482,1.275,0.861
			c0.348,0.377,0.615,0.848,0.799,1.41C134.313,16.371,134.404,17.016,134.404,17.742z M132.84,17.813
			c0-0.545-0.061-1.021-0.18-1.428c-0.121-0.407-0.292-0.748-0.515-1.02c-0.223-0.273-0.494-0.478-0.813-0.615
			s-0.675-0.207-1.067-0.207c-0.457,0-0.849,0.09-1.173,0.268c-0.326,0.18-0.593,0.418-0.801,0.717s-0.359,0.646-0.457,1.041
			c-0.096,0.396-0.145,0.811-0.145,1.244c0,0.545,0.06,1.022,0.18,1.433s0.292,0.751,0.515,1.024
			c0.223,0.271,0.492,0.478,0.809,0.615s0.674,0.206,1.072,0.206c0.457,0,0.849-0.089,1.173-0.269
			c0.326-0.178,0.592-0.417,0.801-0.716c0.207-0.299,0.359-0.646,0.457-1.042C132.791,18.67,132.84,18.252,132.84,17.813z"/>
		<path fill="#475966" d="M136.979,13.4h1.397l0.044,1.626c0.521-0.627,1.035-1.081,1.542-1.362s1.019-0.422,1.534-0.422
			c0.914,0,1.606,0.296,2.079,0.888c0.471,0.592,0.689,1.471,0.654,2.637h-1.547c0.018-0.773-0.096-1.334-0.338-1.683
			c-0.244-0.349-0.6-0.523-1.068-0.523c-0.205,0-0.412,0.037-0.619,0.109c-0.209,0.074-0.422,0.191-0.643,0.352
			c-0.219,0.162-0.452,0.368-0.698,0.62s-0.51,0.557-0.791,0.914v5.669h-1.547V13.4z"/>
		<path fill="#475966" d="M153.969,17.347c0,0.217-0.003,0.398-0.009,0.545s-0.015,0.284-0.026,0.413h-6.196
			c0,0.902,0.252,1.596,0.756,2.078c0.504,0.484,1.23,0.726,2.18,0.726c0.258,0,0.516-0.01,0.773-0.03s0.507-0.049,0.747-0.084
			s0.471-0.074,0.689-0.119c0.221-0.043,0.424-0.092,0.611-0.145v1.257c-0.416,0.117-0.887,0.213-1.41,0.286
			c-0.525,0.072-1.068,0.109-1.631,0.109c-0.756,0-1.406-0.103-1.951-0.308s-0.992-0.502-1.34-0.892
			c-0.35-0.39-0.607-0.867-0.773-1.434c-0.168-0.564-0.251-1.205-0.251-1.92c0-0.621,0.089-1.209,0.269-1.762
			c0.178-0.555,0.439-1.04,0.781-1.459c0.344-0.419,0.764-0.752,1.262-0.998s1.063-0.369,1.696-0.369c0.615,0,1.16,0.097,1.635,0.29
			s0.874,0.468,1.2,0.821c0.324,0.355,0.57,0.786,0.738,1.293C153.885,16.153,153.969,16.72,153.969,17.347z M152.378,17.127
			c0.018-0.393-0.021-0.752-0.114-1.076c-0.094-0.326-0.239-0.605-0.436-0.84s-0.44-0.418-0.733-0.549
			c-0.293-0.133-0.633-0.198-1.02-0.198c-0.334,0-0.639,0.064-0.914,0.193s-0.513,0.311-0.712,0.545s-0.36,0.516-0.483,0.844
			s-0.199,0.688-0.229,1.081H152.378z"/>
		<path fill="#475966" d="M163.399,19.816c0,0.311-0.053,0.589-0.158,0.835s-0.249,0.465-0.431,0.655s-0.393,0.353-0.633,0.487
			s-0.496,0.246-0.77,0.334c-0.271,0.088-0.552,0.152-0.839,0.193s-0.568,0.062-0.844,0.062c-0.598,0-1.147-0.026-1.647-0.079
			c-0.502-0.053-0.992-0.138-1.473-0.255v-1.406c0.516,0.146,1.028,0.258,1.538,0.334s1.017,0.114,1.521,0.114
			c0.732,0,1.274-0.1,1.626-0.299s0.527-0.483,0.527-0.853c0-0.158-0.028-0.3-0.083-0.426c-0.057-0.126-0.157-0.246-0.304-0.361
			c-0.146-0.113-0.374-0.232-0.681-0.355c-0.309-0.123-0.729-0.264-1.262-0.422c-0.398-0.117-0.767-0.25-1.104-0.4
			c-0.337-0.148-0.628-0.326-0.874-0.531s-0.439-0.445-0.58-0.721s-0.211-0.601-0.211-0.976c0-0.246,0.058-0.516,0.171-0.809
			c0.115-0.293,0.31-0.565,0.585-0.817s0.647-0.461,1.116-0.629c0.469-0.166,1.055-0.25,1.758-0.25c0.346,0,0.729,0.02,1.151,0.057
			c0.422,0.039,0.861,0.104,1.318,0.198v1.362c-0.48-0.117-0.937-0.203-1.366-0.26c-0.432-0.055-0.805-0.083-1.121-0.083
			c-0.381,0-0.702,0.029-0.963,0.088s-0.472,0.14-0.633,0.241c-0.161,0.104-0.276,0.224-0.347,0.361s-0.105,0.285-0.105,0.443
			s0.03,0.302,0.093,0.431c0.061,0.129,0.176,0.254,0.342,0.374c0.168,0.12,0.4,0.24,0.699,0.359
			c0.299,0.121,0.688,0.251,1.169,0.392c0.521,0.152,0.961,0.312,1.318,0.479c0.357,0.166,0.647,0.353,0.87,0.558
			s0.383,0.437,0.479,0.694C163.352,19.195,163.399,19.488,163.399,19.816z"/>
		<path fill="#475966" d="M169.78,19.456c0.199,0,0.388,0.038,0.567,0.114c0.178,0.076,0.334,0.182,0.465,0.316
			c0.133,0.135,0.236,0.292,0.313,0.471s0.114,0.37,0.114,0.575c0,0.199-0.038,0.387-0.114,0.563s-0.18,0.329-0.313,0.462
			c-0.131,0.131-0.287,0.235-0.465,0.312c-0.18,0.076-0.368,0.114-0.567,0.114c-0.205,0-0.396-0.038-0.571-0.114
			s-0.33-0.181-0.461-0.312c-0.133-0.133-0.236-0.286-0.313-0.462s-0.114-0.363-0.114-0.563c0-0.205,0.038-0.396,0.114-0.575
			s0.18-0.336,0.313-0.471c0.131-0.135,0.285-0.24,0.461-0.316S169.575,19.456,169.78,19.456z"/>
		<path fill="#475966" d="M176.205,13.4h1.362l0.062,1.424c0.258-0.305,0.507-0.559,0.747-0.76c0.24-0.203,0.476-0.365,0.708-0.488
			c0.23-0.123,0.467-0.209,0.707-0.26c0.24-0.049,0.489-0.074,0.747-0.074c0.908,0,1.595,0.268,2.062,0.805
			c0.465,0.535,0.698,1.343,0.698,2.421v5.757h-1.529v-5.634c0-0.691-0.129-1.202-0.387-1.534c-0.258-0.33-0.642-0.496-1.151-0.496
			c-0.188,0-0.371,0.028-0.549,0.084c-0.18,0.056-0.365,0.152-0.559,0.289c-0.193,0.139-0.403,0.324-0.629,0.559
			s-0.479,0.527-0.76,0.879v5.854h-1.529V13.4z"/>
		<path fill="#475966" d="M193.555,17.347c0,0.217-0.003,0.398-0.009,0.545s-0.015,0.284-0.026,0.413h-6.196
			c0,0.902,0.252,1.596,0.756,2.078c0.504,0.484,1.23,0.726,2.18,0.726c0.258,0,0.516-0.01,0.773-0.03s0.507-0.049,0.747-0.084
			s0.471-0.074,0.689-0.119c0.221-0.043,0.424-0.092,0.611-0.145v1.257c-0.416,0.117-0.887,0.213-1.41,0.286
			c-0.525,0.072-1.068,0.109-1.631,0.109c-0.756,0-1.406-0.103-1.951-0.308s-0.992-0.502-1.34-0.892
			c-0.35-0.39-0.607-0.867-0.773-1.434c-0.168-0.564-0.251-1.205-0.251-1.92c0-0.621,0.089-1.209,0.269-1.762
			c0.178-0.555,0.439-1.04,0.781-1.459c0.344-0.419,0.764-0.752,1.262-0.998s1.063-0.369,1.696-0.369c0.615,0,1.16,0.097,1.635,0.29
			s0.874,0.468,1.2,0.821c0.324,0.355,0.57,0.786,0.738,1.293C193.471,16.153,193.555,16.72,193.555,17.347z M191.964,17.127
			c0.018-0.393-0.021-0.752-0.114-1.076c-0.094-0.326-0.239-0.605-0.436-0.84s-0.44-0.418-0.733-0.549
			c-0.293-0.133-0.633-0.198-1.02-0.198c-0.334,0-0.639,0.064-0.914,0.193s-0.513,0.311-0.712,0.545s-0.36,0.516-0.483,0.844
			s-0.199,0.688-0.229,1.081H191.964z"/>
		<path fill="#475966" d="M203.108,22.102c-0.346,0.088-0.703,0.15-1.072,0.189c-0.369,0.037-0.744,0.057-1.125,0.057
			c-1.107,0-1.934-0.25-2.479-0.752c-0.545-0.5-0.817-1.27-0.817-2.307v-4.605h-2.47V13.4h2.47v-2.426l1.529-0.396V13.4h3.964v1.283
			h-3.964v4.482c0,0.633,0.168,1.106,0.506,1.42c0.336,0.313,0.833,0.47,1.489,0.47c0.281,0,0.589-0.022,0.923-0.065
			c0.334-0.045,0.683-0.113,1.046-0.207V22.102z"/>
	</g>
</g>
</svg>
