<?xml version="1.0" encoding="utf-8"?>
<!-- Generator: Adobe Illustrator 19.0.0, SVG Export Plug-In . SVG Version: 6.00 Build 0)  -->
<svg version="1.1" id="Layer_1" xmlns="http://www.w3.org/2000/svg" xmlns:xlink="http://www.w3.org/1999/xlink" x="0px" y="0px"
	 viewBox="0 0 223.5 224.3" style="enable-background:new 0 0 223.5 224.3;" xml:space="preserve">
<style type="text/css">
	.st0{fill:#F0F5FF;}
</style>
<g id="XMLID_2_">
	<path id="XMLID_47_" class="st0" d="M223.5,111.2c0.4,60.5-48.9,113-112.5,113.1C49.1,224.4,0,174.8,0,112.9
		C0,50.8,50.7,0.1,112.7,0C175-0.1,224,50.9,223.5,111.2z M27.3,61.4c0,0.8,0,1.6,0,2.3c0.1,13.4,0.8,26.7,3.5,39.9
		c3.9,18.8,10.8,36.2,22.7,51.5c9.9,12.6,22.1,22.2,37,28.4c3.7,1.5,7.3,2,11,0c2.4-1.3,5-2.3,7.4-3.5c3.4-1.7,2.9-1.1,1.7-4.4
		c-4.3-12.1-4.3-24.3,1.4-35.8c9.2-18.8,24.5-28,45.5-27.4c1.2,0,1.9-0.3,2.1-1.5c0.2-0.7,0.4-1.5,0.6-2.2
		c2.6-10.6,3.9-21.5,4.4-32.4c0.2-5,0-10,0-15c-0.3-0.1-0.5-0.2-0.6-0.2c-1.8,0-3.7-0.1-5.5-0.1c-12.2,0.1-22.6-3.8-30.2-13.8
		c-0.7-1-1.6-1.9-2.4-2.8c-7.1-8.7-15.8-14.4-27.5-14.8c-11.6-0.4-21.7,2.7-29.7,11.5c-2.9,3.2-5.7,6.5-8.7,9.7
		c-4.8,5.2-10.8,8.5-17.9,9.4C37.4,60.8,32.5,61,27.3,61.4z M189.9,159.3c0-20.2-16-36.2-36.2-36.3c-19.8,0-36.1,16.3-36.2,36.2
		c0,20.8,17.1,36.5,36.4,36.3C174,195.3,189.9,179.5,189.9,159.3z"/>
	<path id="XMLID_40_" class="st0" d="M96.3,172.9c-4.9-1.5-9.2-3.9-13.4-6.7c-17.4-11.5-28.6-27.6-35.6-46.9
		c-5.2-14.4-7.3-29.4-8.2-44.6c-0.1-1.7,0.5-2.3,2.1-2.5c12.4-1,22.2-6.9,30.2-16.3c2.6-3,5.2-6,8.1-8.8C83.8,43,90,41,96.3,41.6
		C96.3,85.3,96.3,128.9,96.3,172.9z"/>
	<path id="XMLID_39_" class="st0" d="M129.5,161.6c3.2-3.2,6.5-6.4,10-10c3,3.2,6,6.5,9.2,9.9c6.7-6.9,13.2-13.4,19.5-19.8
		c3.5,3.6,6.7,6.8,9.7,9.9c-9.6,9.5-19.4,19.4-29.2,29.1C142.5,174.5,136,168.1,129.5,161.6z"/>
</g>
</svg>
